<svg width="340" height="55" viewBox="0 0 340 55" fill="none" xmlns="http://www.w3.org/2000/svg">
<path d="M0 29.4969C0 26.8724 0.374845 24.5712 1.12454 22.5934C1.91171 20.6155 2.94254 18.9799 4.21701 17.6867C5.49149 16.3555 6.95338 15.3665 8.6027 14.7199C10.252 14.0353 11.9388 13.6929 13.6631 13.6929C17.7114 13.6929 20.8601 14.9671 23.1092 17.5156C25.3958 20.064 26.5391 23.8676 26.5391 28.9263C26.5391 29.3067 26.5203 29.7441 26.4828 30.2386C26.4828 30.695 26.4641 31.1134 26.4266 31.4938H7.02835C7.21577 33.89 8.04043 35.7538 9.50233 37.0851C11.0017 38.3783 13.1571 39.0249 15.9684 39.0249C17.6177 39.0249 19.1171 38.8728 20.4666 38.5685C21.8535 38.2642 22.9405 37.9409 23.7277 37.5985L24.6273 43.2469C24.2525 43.4371 23.7277 43.6463 23.053 43.8745C22.4158 44.0647 21.6661 44.2358 20.8039 44.388C19.9793 44.5781 19.0796 44.7303 18.105 44.8444C17.1304 44.9585 16.1371 45.0156 15.125 45.0156C12.5386 45.0156 10.2895 44.6352 8.37779 43.8745C6.46608 43.0757 4.89173 41.9917 3.65474 40.6224C2.41775 39.2151 1.49938 37.5795 0.899629 35.7158C0.299876 33.814 0 31.741 0 29.4969ZM19.7356 26.416C19.7356 25.4651 19.6044 24.5712 19.342 23.7344C19.0796 22.8596 18.686 22.1179 18.1613 21.5093C17.674 20.8627 17.0555 20.3683 16.3058 20.0259C15.5936 19.6456 14.7314 19.4554 13.7193 19.4554C12.6698 19.4554 11.7514 19.6646 10.9642 20.083C10.1771 20.4633 9.50233 20.9768 8.94006 21.6234C8.41528 22.2701 8.00295 23.0118 7.70307 23.8485C7.4032 24.6853 7.19703 25.5411 7.08458 26.416H19.7356Z" fill="#2176AE"/>
<path d="M44.0981 39.4243C46.1972 39.4243 47.7903 39.3102 48.8774 39.0819V31.4367C48.5025 31.3226 47.959 31.2085 47.2468 31.0944C46.5346 30.9803 45.7474 30.9232 44.8852 30.9232C44.1356 30.9232 43.3671 30.9803 42.5799 31.0944C41.8303 31.2085 41.1368 31.4177 40.4996 31.722C39.8998 32.0263 39.4125 32.4637 39.0377 33.0342C38.6628 33.5667 38.4754 34.2514 38.4754 35.0882C38.4754 36.7237 38.9814 37.8648 39.9935 38.5114C41.0056 39.12 42.3738 39.4243 44.0981 39.4243ZM43.5358 13.6929C45.7849 13.6929 47.6778 13.9782 49.2147 14.5488C50.7516 15.1193 51.9698 15.918 52.8695 16.945C53.8066 17.972 54.4625 19.2272 54.8374 20.7106C55.2497 22.1559 55.4559 23.7535 55.4559 25.5031V43.5892C54.4063 43.8174 52.8132 44.0837 50.6766 44.388C48.5775 44.7303 46.1972 44.9014 43.5358 44.9014C41.774 44.9014 40.1622 44.7303 38.7003 44.388C37.2384 44.0456 35.9827 43.4941 34.9331 42.7334C33.921 41.9727 33.1151 40.9837 32.5153 39.7666C31.9531 38.5494 31.6719 37.047 31.6719 35.2593C31.6719 33.5477 31.9906 32.1023 32.6278 30.9232C33.3025 29.7441 34.2022 28.7932 35.3267 28.0705C36.4512 27.3098 37.7444 26.7773 39.2063 26.473C40.7057 26.1307 42.2613 25.9595 43.8732 25.9595C44.6229 25.9595 45.41 26.0166 46.2347 26.1307C47.0593 26.2068 47.9402 26.3589 48.8774 26.5871V25.4461C48.8774 24.6473 48.7836 23.8866 48.5962 23.1639C48.4088 22.4412 48.0714 21.8136 47.5841 21.2811C47.1343 20.7106 46.5158 20.2732 45.7286 19.9689C44.979 19.6646 44.0231 19.5124 42.8611 19.5124C41.2867 19.5124 39.8436 19.6266 38.5316 19.8548C37.2197 20.083 36.1513 20.3492 35.3267 20.6535L34.4833 15.0622C35.3454 14.758 36.6012 14.4537 38.2505 14.1494C39.8998 13.8451 41.6616 13.6929 43.5358 13.6929Z" fill="#2176AE"/>
<path d="M71.1533 39.3102C72.9525 39.3102 74.2645 39.101 75.0891 38.6826C75.9138 38.2261 76.3261 37.4654 76.3261 36.4004C76.3261 35.4115 75.8763 34.5937 74.9767 33.9471C74.1145 33.3005 72.6714 32.5968 70.6472 31.8361C69.4102 31.3797 68.267 30.9042 67.2174 30.4097C66.2053 29.8772 65.3244 29.2687 64.5747 28.584C63.825 27.8994 63.2253 27.0816 62.7755 26.1307C62.3631 25.1418 62.157 23.9436 62.157 22.5363C62.157 19.7977 63.1503 17.6487 65.137 16.0892C67.1237 14.4917 69.8226 13.6929 73.2337 13.6929C74.958 13.6929 76.6073 13.8641 78.1816 14.2064C79.756 14.5107 80.9367 14.815 81.7239 15.1193L80.4869 20.7106C79.7372 20.3683 78.7814 20.064 77.6193 19.7977C76.4573 19.4934 75.1079 19.3413 73.571 19.3413C72.1841 19.3413 71.0596 19.5885 70.1974 20.083C69.3353 20.5394 68.9042 21.2621 68.9042 22.251C68.9042 22.7455 68.9792 23.1829 69.1291 23.5633C69.3165 23.9436 69.6164 24.305 70.0287 24.6473C70.4411 24.9516 70.9846 25.2749 71.6593 25.6172C72.334 25.9215 73.1587 26.2448 74.1333 26.5871C75.7451 27.1957 77.1133 27.8043 78.2379 28.4129C79.3624 28.9834 80.2808 29.649 80.993 30.4097C81.7427 31.1324 82.2862 31.9692 82.6235 32.9201C82.9609 33.871 83.1296 35.0121 83.1296 36.3434C83.1296 39.1961 82.08 41.3641 79.9809 42.8475C77.9192 44.2929 74.9579 45.0156 71.097 45.0156C68.5106 45.0156 66.4302 44.7873 64.8559 44.3309C63.2815 43.9125 62.1757 43.5702 61.5385 43.3039L62.7192 37.5415C63.7313 37.9599 64.9308 38.3593 66.3178 38.7396C67.7422 39.12 69.354 39.3102 71.1533 39.3102Z" fill="#2176AE"/>
<path d="M113.494 14.4346C110.458 25.7694 106.934 36.0391 102.923 45.2438C102.173 46.9554 101.405 48.4198 100.618 49.6369C99.8307 50.8541 98.9498 51.862 97.9752 52.6608C97.0006 53.4595 95.9136 54.0301 94.7141 54.3724C93.5146 54.7528 92.1276 54.9429 90.5533 54.9429C89.5037 54.9429 88.4541 54.8288 87.4046 54.6006C86.3925 54.3724 85.6241 54.1252 85.0993 53.8589L86.3363 48.3247C87.6857 48.8572 89.0164 49.1234 90.3284 49.1234C92.0901 49.1234 93.4583 48.686 94.4329 47.8112C95.445 46.9744 96.3259 45.6622 97.0756 43.8745C94.939 39.6905 92.8773 35.1262 90.8906 30.1815C88.9414 25.2369 87.1984 19.9879 85.6615 14.4346H92.9148C93.2896 16.0322 93.7395 17.7628 94.2642 19.6266C94.8265 21.4903 95.4263 23.3921 96.0635 25.3319C96.7007 27.2337 97.3755 29.1355 98.0877 31.0373C98.7999 32.9391 99.5121 34.7078 100.224 36.3434C101.424 32.9582 102.548 29.3638 103.598 25.5602C104.647 21.7185 105.603 18.01 106.465 14.4346H113.494Z" fill="#2176AE"/>
<path d="M126.288 40.5083C126.288 41.8396 125.839 42.9236 124.939 43.7604C124.077 44.5972 123.027 45.0156 121.79 45.0156C120.516 45.0156 119.448 44.5972 118.585 43.7604C117.723 42.9236 117.292 41.8396 117.292 40.5083C117.292 39.177 117.723 38.093 118.585 37.2562C119.448 36.3814 120.516 35.944 121.79 35.944C123.027 35.944 124.077 36.3814 124.939 37.2562C125.839 38.093 126.288 39.177 126.288 40.5083Z" fill="#FE6847"/>
<path d="M133.24 6.5612L140.043 5.42012V14.4346H150.501V20.1971H140.043V32.3496C140.043 34.7458 140.418 36.4575 141.168 37.4844C141.917 38.5114 143.192 39.0249 144.991 39.0249C146.228 39.0249 147.315 38.8918 148.252 38.6255C149.227 38.3593 149.995 38.112 150.557 37.8838L151.682 43.361C150.895 43.7033 149.864 44.0456 148.589 44.388C147.315 44.7683 145.816 44.9585 144.091 44.9585C141.992 44.9585 140.23 44.6732 138.806 44.1027C137.419 43.5322 136.313 42.7144 135.489 41.6494C134.664 40.5463 134.083 39.2341 133.746 37.7127C133.408 36.1532 133.24 34.3845 133.24 32.4066V6.5612Z" fill="#FE6847"/>
<path d="M173.834 20.6535C173.271 20.4633 172.484 20.2732 171.472 20.083C170.497 19.8548 169.354 19.7407 168.042 19.7407C167.292 19.7407 166.487 19.8167 165.624 19.9689C164.8 20.121 164.219 20.2541 163.881 20.3683V44.2739H157.078V15.861C158.39 15.3665 160.02 14.9101 161.97 14.4917C163.956 14.0353 166.149 13.8071 168.548 13.8071C168.998 13.8071 169.523 13.8451 170.123 13.9212C170.722 13.9592 171.322 14.0353 171.922 14.1494C172.522 14.2254 173.103 14.3396 173.665 14.4917C174.227 14.6058 174.677 14.7199 175.014 14.834L173.834 20.6535Z" fill="#FE6847"/>
<path d="M190.101 39.4243C192.2 39.4243 193.793 39.3102 194.88 39.0819V31.4367C194.506 31.3226 193.962 31.2085 193.25 31.0944C192.538 30.9803 191.75 30.9232 190.888 30.9232C190.139 30.9232 189.37 30.9803 188.583 31.0944C187.833 31.2085 187.14 31.4177 186.503 31.722C185.903 32.0263 185.416 32.4637 185.041 33.0342C184.666 33.5667 184.478 34.2514 184.478 35.0882C184.478 36.7237 184.984 37.8648 185.997 38.5114C187.009 39.12 188.377 39.4243 190.101 39.4243ZM189.539 13.6929C191.788 13.6929 193.681 13.9782 195.218 14.5488C196.755 15.1193 197.973 15.918 198.872 16.945C199.81 17.972 200.466 19.2272 200.84 20.7106C201.253 22.1559 201.459 23.7535 201.459 25.5031V43.5892C200.409 43.8174 198.816 44.0837 196.68 44.388C194.58 44.7303 192.2 44.9014 189.539 44.9014C187.777 44.9014 186.165 44.7303 184.703 44.388C183.241 44.0456 181.986 43.4941 180.936 42.7334C179.924 41.9727 179.118 40.9837 178.518 39.7666C177.956 38.5494 177.675 37.047 177.675 35.2593C177.675 33.5477 177.994 32.1023 178.631 30.9232C179.306 29.7441 180.205 28.7932 181.33 28.0705C182.454 27.3098 183.747 26.7773 185.209 26.473C186.709 26.1307 188.264 25.9595 189.876 25.9595C190.626 25.9595 191.413 26.0166 192.238 26.1307C193.062 26.2068 193.943 26.3589 194.88 26.5871V25.4461C194.88 24.6473 194.787 23.8866 194.599 23.1639C194.412 22.4412 194.074 21.8136 193.587 21.2811C193.137 20.7106 192.519 20.2732 191.732 19.9689C190.982 19.6646 190.026 19.5124 188.864 19.5124C187.29 19.5124 185.847 19.6266 184.535 19.8548C183.223 20.083 182.154 20.3492 181.33 20.6535L180.486 15.0622C181.348 14.758 182.604 14.4537 184.253 14.1494C185.903 13.8451 187.665 13.6929 189.539 13.6929Z" fill="#FE6847"/>
<path d="M208.16 29.3828C208.16 27.1767 208.497 25.1227 209.172 23.221C209.847 21.2811 210.803 19.6075 212.04 18.2002C213.314 16.7929 214.851 15.6898 216.65 14.8911C218.449 14.0923 220.474 13.6929 222.723 13.6929C225.497 13.6929 228.121 14.2064 230.594 15.2334L229.133 20.8817C228.345 20.5394 227.446 20.2541 226.434 20.0259C225.459 19.7977 224.41 19.6836 223.285 19.6836C220.624 19.6836 218.599 20.5394 217.213 22.251C215.826 23.9246 215.132 26.3019 215.132 29.3828C215.132 32.3496 215.788 34.7078 217.1 36.4575C218.412 38.1691 220.624 39.0249 223.735 39.0249C224.897 39.0249 226.04 38.9108 227.165 38.6826C228.289 38.4544 229.264 38.1691 230.088 37.8268L231.044 43.5322C230.295 43.9125 229.151 44.2548 227.614 44.5591C226.115 44.8634 224.559 45.0156 222.948 45.0156C220.436 45.0156 218.243 44.6352 216.369 43.8745C214.532 43.0757 212.996 41.9917 211.759 40.6224C210.559 39.2151 209.659 37.5605 209.06 35.6587C208.46 33.7189 208.16 31.6269 208.16 29.3828Z" fill="#FE6847"/>
<path d="M243.115 26.0736C243.977 25.1608 244.896 24.1909 245.87 23.1639C246.845 22.0989 247.801 21.0529 248.738 20.0259C249.675 18.9609 250.556 17.953 251.38 17.0021C252.243 16.0131 252.973 15.1573 253.573 14.4346H261.614C259.739 16.5647 257.753 18.7707 255.654 21.0529C253.592 23.3351 251.512 25.5602 249.412 27.7282C250.537 28.6791 251.718 29.8392 252.955 31.2085C254.192 32.5398 255.391 33.9661 256.553 35.4875C257.715 37.009 258.802 38.5304 259.814 40.0519C260.827 41.5733 261.67 42.9806 262.345 44.2739H254.473C253.798 43.0947 253.011 41.8586 252.111 40.5654C251.249 39.2721 250.312 38.0169 249.3 36.7998C248.288 35.5826 247.257 34.4416 246.208 33.3766C245.158 32.2735 244.127 31.3416 243.115 30.5809V44.2739H236.312V1.14108L243.115 0V26.0736Z" fill="#FE6847"/>
<path d="M274.14 44.2739H267.337V14.4346H274.14V44.2739ZM274.871 5.70539C274.871 6.99862 274.459 8.02559 273.634 8.78631C272.809 9.54702 271.835 9.92738 270.71 9.92738C269.548 9.92738 268.555 9.54702 267.73 8.78631C266.905 8.02559 266.493 6.99862 266.493 5.70539C266.493 4.37413 266.905 3.32815 267.73 2.56743C268.555 1.80671 269.548 1.42635 270.71 1.42635C271.835 1.42635 272.809 1.80671 273.634 2.56743C274.459 3.32815 274.871 4.37413 274.871 5.70539Z" fill="#FE6847"/>
<path d="M282.82 15.4046C284.131 15.0242 285.837 14.6629 287.936 14.3205C290.035 13.9782 292.359 13.8071 294.908 13.8071C297.307 13.8071 299.313 14.1494 300.925 14.834C302.536 15.4806 303.811 16.4125 304.748 17.6297C305.723 18.8088 306.397 20.2541 306.772 21.9658C307.184 23.6393 307.391 25.4841 307.391 27.5V44.2739H300.587V28.584C300.587 26.9865 300.475 25.6362 300.25 24.5332C300.062 23.3921 299.725 22.4793 299.238 21.7946C298.788 21.0719 298.151 20.5584 297.326 20.2541C296.539 19.9118 295.564 19.7407 294.402 19.7407C293.54 19.7407 292.64 19.7977 291.703 19.9118C290.766 20.0259 290.073 20.121 289.623 20.1971V44.2739H282.82V15.4046Z" fill="#FE6847"/>
<path d="M321.052 28.584C321.052 31.5128 321.67 33.6618 322.907 35.0311C324.182 36.3624 325.812 37.028 327.799 37.028C328.886 37.028 329.898 36.8759 330.835 36.5716C331.81 36.2673 332.597 35.9059 333.197 35.4875V20.0259C332.709 19.9118 332.109 19.8167 331.397 19.7407C330.685 19.6266 329.785 19.5695 328.698 19.5695C326.224 19.5695 324.331 20.4063 323.019 22.0799C321.708 23.7154 321.052 25.8835 321.052 28.584ZM340 41.25C340 46.0045 338.8 49.4848 336.401 51.6909C334.04 53.897 330.404 55 325.493 55C323.694 55 321.932 54.8479 320.208 54.5436C318.521 54.2393 316.984 53.8399 315.598 53.3454L316.835 47.4689C317.997 47.9633 319.309 48.3627 320.77 48.667C322.27 48.9713 323.882 49.1234 325.606 49.1234C328.342 49.1234 330.292 48.5529 331.454 47.4118C332.616 46.2707 333.197 44.5781 333.197 42.334V41.1929C332.522 41.5353 331.622 41.8776 330.498 42.2199C329.411 42.5622 328.155 42.7334 326.73 42.7334C324.856 42.7334 323.132 42.4291 321.558 41.8205C320.021 41.212 318.69 40.3181 317.566 39.139C316.478 37.9599 315.616 36.4955 314.979 34.7458C314.379 32.9582 314.079 30.9042 314.079 28.584C314.079 26.416 314.398 24.4191 315.035 22.5934C315.71 20.7676 316.666 19.2082 317.903 17.9149C319.177 16.6217 320.714 15.6138 322.513 14.8911C324.313 14.1684 326.356 13.8071 328.642 13.8071C330.854 13.8071 332.953 13.9782 334.94 14.3205C336.926 14.6629 338.613 15.0242 340 15.4046V41.25Z" fill="#FE6847"/>
</svg>
